<?xml version="1.0" encoding="UTF-8"?>
<svg xmlns="http://www.w3.org/2000/svg" xmlns:xlink="http://www.w3.org/1999/xlink" width="13px" height="13px" viewBox="0 0 13 13" version="1.1">
<g id="surface1">
<path style=" stroke:none;fill-rule:nonzero;fill:rgb(0%,0%,0%);fill-opacity:1;" d="M 2.4375 11.917969 C 2.222656 11.917969 2.03125 11.835938 1.867188 11.671875 C 1.707031 11.511719 1.625 11.320312 1.625 11.105469 L 1.625 2.707031 C 1.625 2.492188 1.707031 2.300781 1.867188 2.140625 C 2.03125 1.976562 2.222656 1.894531 2.4375 1.894531 L 3.316406 1.894531 L 3.316406 1.082031 L 4.199219 1.082031 L 4.199219 1.894531 L 8.800781 1.894531 L 8.800781 1.082031 L 9.683594 1.082031 L 9.683594 1.894531 L 10.5625 1.894531 C 10.777344 1.894531 10.96875 1.976562 11.132812 2.140625 C 11.292969 2.300781 11.375 2.492188 11.375 2.707031 L 11.375 6.785156 L 10.5625 6.785156 L 10.5625 5.28125 L 2.4375 5.28125 L 2.4375 11.105469 L 6.757812 11.105469 L 6.757812 11.917969 Z M 12.039062 8.949219 L 11.078125 7.988281 L 11.46875 7.597656 C 11.542969 7.523438 11.636719 7.488281 11.753906 7.488281 C 11.871094 7.488281 11.964844 7.523438 12.039062 7.597656 L 12.429688 7.988281 C 12.503906 8.0625 12.539062 8.15625 12.539062 8.273438 C 12.539062 8.390625 12.503906 8.484375 12.429688 8.558594 Z M 7.570312 12.457031 L 7.570312 11.496094 L 10.496094 8.570312 L 11.457031 9.535156 L 8.53125 12.457031 Z M 2.4375 4.46875 L 10.5625 4.46875 L 10.5625 2.707031 L 2.4375 2.707031 Z M 2.4375 4.46875 L 2.4375 2.707031 Z M 2.4375 4.46875 "/>
</g>
</svg>
