<?xml version="1.0" encoding="UTF-8"?>
<svg xmlns="http://www.w3.org/2000/svg" xmlns:xlink="http://www.w3.org/1999/xlink" width="20px" height="20px" viewBox="0 0 20 20" version="1.1">
<g id="surface1">
<path style=" stroke:none;fill-rule:nonzero;fill:rgb(0%,0%,0%);fill-opacity:1;" d="M 6.644531 14.792969 L 13.355469 14.792969 L 13.355469 13.542969 L 6.644531 13.542969 Z M 6.644531 11.25 L 13.355469 11.25 L 13.355469 10 L 6.644531 10 Z M 4.582031 18.332031 C 4.25 18.332031 3.957031 18.207031 3.707031 17.957031 C 3.457031 17.707031 3.332031 17.417969 3.332031 17.082031 L 3.332031 2.917969 C 3.332031 2.582031 3.457031 2.292969 3.707031 2.042969 C 3.957031 1.792969 4.25 1.667969 4.582031 1.667969 L 12.105469 1.667969 L 16.667969 6.230469 L 16.667969 17.082031 C 16.667969 17.417969 16.542969 17.707031 16.292969 17.957031 C 16.042969 18.207031 15.75 18.332031 15.417969 18.332031 Z M 11.480469 6.792969 L 11.480469 2.917969 L 4.582031 2.917969 L 4.582031 17.082031 L 15.417969 17.082031 L 15.417969 6.792969 Z M 4.582031 2.917969 L 4.582031 6.792969 L 4.582031 2.917969 L 4.582031 17.082031 Z M 4.582031 2.917969 "/>
</g>
</svg>
