<?xml version="1.0" encoding="UTF-8"?>
<svg xmlns="http://www.w3.org/2000/svg" xmlns:xlink="http://www.w3.org/1999/xlink" width="14px" height="14px" viewBox="0 0 14 14" version="1.1">
<g id="surface1">
<path style=" stroke:none;fill-rule:nonzero;fill:rgb(0%,0%,0%);fill-opacity:1;" d="M 2.625 12.25 C 2.390625 12.25 2.1875 12.164062 2.011719 11.988281 C 1.835938 11.8125 1.75 11.609375 1.75 11.375 L 1.75 2.625 C 1.75 2.390625 1.835938 2.1875 2.011719 2.011719 C 2.1875 1.835938 2.390625 1.75 2.625 1.75 L 11.375 1.75 C 11.609375 1.75 11.8125 1.835938 11.988281 2.011719 C 12.164062 2.1875 12.25 2.390625 12.25 2.625 L 12.25 11.375 C 12.25 11.609375 12.164062 11.8125 11.988281 11.988281 C 11.8125 12.164062 11.609375 12.25 11.375 12.25 Z M 2.625 11.375 L 11.375 11.375 L 11.375 2.625 L 2.625 2.625 Z M 2.625 11.375 "/>
</g>
</svg>
