<?xml version="1.0" encoding="UTF-8"?>
<svg xmlns="http://www.w3.org/2000/svg" xmlns:xlink="http://www.w3.org/1999/xlink" width="20px" height="20px" viewBox="0 0 20 20" version="1.1">
<g id="surface1">
<path style=" stroke:none;fill-rule:nonzero;fill:rgb(0%,0%,0%);fill-opacity:1;" d="M 9.4375 14.167969 L 10.6875 14.167969 L 10.6875 10.707031 L 14.167969 10.707031 L 14.167969 9.457031 L 10.6875 9.457031 L 10.6875 5.832031 L 9.4375 5.832031 L 9.4375 9.457031 L 5.832031 9.457031 L 5.832031 10.707031 L 9.4375 10.707031 Z M 10 18.332031 C 8.820312 18.332031 7.722656 18.121094 6.707031 17.699219 C 5.695312 17.273438 4.8125 16.6875 4.0625 15.9375 C 3.3125 15.1875 2.726562 14.304688 2.300781 13.292969 C 1.878906 12.277344 1.667969 11.179688 1.667969 10 C 1.667969 8.832031 1.878906 7.742188 2.300781 6.730469 C 2.726562 5.714844 3.3125 4.832031 4.0625 4.082031 C 4.8125 3.332031 5.695312 2.742188 6.707031 2.3125 C 7.722656 1.882812 8.820312 1.667969 10 1.667969 C 11.167969 1.667969 12.257812 1.882812 13.269531 2.3125 C 14.285156 2.742188 15.167969 3.332031 15.917969 4.082031 C 16.667969 4.832031 17.257812 5.714844 17.6875 6.730469 C 18.117188 7.742188 18.332031 8.832031 18.332031 10 C 18.332031 11.179688 18.117188 12.277344 17.6875 13.292969 C 17.257812 14.304688 16.667969 15.1875 15.917969 15.9375 C 15.167969 16.6875 14.285156 17.273438 13.269531 17.699219 C 12.257812 18.121094 11.167969 18.332031 10 18.332031 Z M 10 10 Z M 10 17.082031 C 11.945312 17.082031 13.609375 16.390625 15 15 C 16.390625 13.609375 17.082031 11.945312 17.082031 10 C 17.082031 8.054688 16.390625 6.390625 15 5 C 13.609375 3.609375 11.945312 2.917969 10 2.917969 C 8.054688 2.917969 6.390625 3.609375 5 5 C 3.609375 6.390625 2.917969 8.054688 2.917969 10 C 2.917969 11.945312 3.609375 13.609375 5 15 C 6.390625 16.390625 8.054688 17.082031 10 17.082031 Z M 10 17.082031 "/>
</g>
</svg>
