<?xml version="1.0" encoding="UTF-8"?>
<svg xmlns="http://www.w3.org/2000/svg" xmlns:xlink="http://www.w3.org/1999/xlink" width="20px" height="20px" viewBox="0 0 20 20" version="1.1">
<g id="surface1">
<path style=" stroke:none;fill-rule:nonzero;fill:rgb(0%,0%,0%);fill-opacity:1;" d="M 15.25 6.582031 L 16.5 6.582031 L 16.5 3.917969 L 19.167969 3.917969 L 19.167969 2.667969 L 16.5 2.667969 L 16.5 0 L 15.25 0 L 15.25 2.667969 L 12.582031 2.667969 L 12.582031 3.917969 L 15.25 3.917969 Z M 10 9.792969 C 10.402344 9.792969 10.746094 9.648438 11.03125 9.363281 C 11.316406 9.078125 11.457031 8.734375 11.457031 8.332031 C 11.457031 7.929688 11.316406 7.585938 11.03125 7.300781 C 10.746094 7.015625 10.402344 6.875 10 6.875 C 9.597656 6.875 9.253906 7.015625 8.96875 7.300781 C 8.683594 7.585938 8.542969 7.929688 8.542969 8.332031 C 8.542969 8.734375 8.683594 9.078125 8.96875 9.363281 C 9.253906 9.648438 9.597656 9.792969 10 9.792969 Z M 10 18.332031 C 7.765625 16.429688 6.09375 14.664062 4.988281 13.03125 C 3.886719 11.398438 3.332031 9.890625 3.332031 8.5 C 3.332031 6.417969 4.003906 4.757812 5.34375 3.519531 C 6.683594 2.285156 8.234375 1.667969 10 1.667969 C 10.234375 1.667969 10.460938 1.675781 10.675781 1.699219 C 10.890625 1.71875 11.109375 1.75 11.332031 1.792969 L 11.332031 3.082031 C 11.125 3.027344 10.910156 2.984375 10.6875 2.957031 C 10.464844 2.929688 10.234375 2.917969 10 2.917969 C 8.484375 2.917969 7.203125 3.4375 6.15625 4.480469 C 5.109375 5.519531 4.582031 6.859375 4.582031 8.5 C 4.582031 9.542969 5.035156 10.746094 5.9375 12.113281 C 6.839844 13.484375 8.195312 15.007812 10 16.6875 C 11.847656 15.007812 13.210938 13.484375 14.09375 12.113281 C 14.976562 10.746094 15.417969 9.542969 15.417969 8.5 C 15.417969 8.390625 15.414062 8.277344 15.40625 8.167969 C 15.398438 8.054688 15.390625 7.945312 15.375 7.832031 L 16.644531 7.832031 C 16.660156 7.945312 16.667969 8.054688 16.667969 8.167969 C 16.667969 8.277344 16.667969 8.390625 16.667969 8.5 C 16.667969 9.890625 16.113281 11.398438 15.011719 13.03125 C 13.90625 14.664062 12.234375 16.429688 10 18.332031 Z M 10 8.042969 Z M 10 8.042969 "/>
</g>
</svg>
