<?xml version="1.0" encoding="UTF-8"?>
<svg xmlns="http://www.w3.org/2000/svg" xmlns:xlink="http://www.w3.org/1999/xlink" width="20px" height="20px" viewBox="0 0 20 20" version="1.1">
<g id="surface1">
<path style=" stroke:none;fill-rule:nonzero;fill:rgb(0%,0%,0%);fill-opacity:1;" d="M 9.375 13.480469 L 9.375 5.75 L 6.875 8.25 L 5.980469 7.355469 L 10 3.332031 L 14.019531 7.355469 L 13.125 8.25 L 10.625 5.75 L 10.625 13.480469 Z M 4.582031 16.667969 C 4.25 16.667969 3.957031 16.542969 3.707031 16.292969 C 3.457031 16.042969 3.332031 15.75 3.332031 15.417969 L 3.332031 12.4375 L 4.582031 12.4375 L 4.582031 15.417969 L 15.417969 15.417969 L 15.417969 12.4375 L 16.667969 12.4375 L 16.667969 15.417969 C 16.667969 15.75 16.542969 16.042969 16.292969 16.292969 C 16.042969 16.542969 15.75 16.667969 15.417969 16.667969 Z M 4.582031 16.667969 "/>
</g>
</svg>
