<?xml version="1.0" encoding="UTF-8"?>
<svg xmlns="http://www.w3.org/2000/svg" xmlns:xlink="http://www.w3.org/1999/xlink" width="20px" height="20px" viewBox="0 0 20 20" version="1.1">
<g id="surface1">
<path style=" stroke:none;fill-rule:nonzero;fill:rgb(0%,0%,0%);fill-opacity:1;" d="M 16.582031 17.480469 L 11.105469 12 C 10.6875 12.359375 10.203125 12.640625 9.644531 12.84375 C 9.089844 13.046875 8.5 13.144531 7.875 13.144531 C 6.375 13.144531 5.105469 12.625 4.0625 11.582031 C 3.019531 10.542969 2.5 9.285156 2.5 7.8125 C 2.5 6.339844 3.019531 5.082031 4.0625 4.042969 C 5.105469 3 6.367188 2.480469 7.855469 2.480469 C 9.328125 2.480469 10.578125 3 11.613281 4.042969 C 12.648438 5.082031 13.167969 6.339844 13.167969 7.8125 C 13.167969 8.410156 13.070312 8.984375 12.875 9.542969 C 12.679688 10.097656 12.390625 10.617188 12 11.105469 L 17.5 16.5625 Z M 7.855469 11.894531 C 8.980469 11.894531 9.9375 11.496094 10.730469 10.699219 C 11.519531 9.898438 11.917969 8.9375 11.917969 7.8125 C 11.917969 6.6875 11.519531 5.726562 10.730469 4.925781 C 9.9375 4.128906 8.980469 3.730469 7.855469 3.730469 C 6.714844 3.730469 5.746094 4.128906 4.949219 4.925781 C 4.148438 5.726562 3.75 6.6875 3.75 7.8125 C 3.75 8.9375 4.148438 9.898438 4.949219 10.699219 C 5.746094 11.496094 6.714844 11.894531 7.855469 11.894531 Z M 7.855469 11.894531 "/>
</g>
</svg>
