<?xml version="1.0" encoding="UTF-8"?>
<svg xmlns="http://www.w3.org/2000/svg" xmlns:xlink="http://www.w3.org/1999/xlink" width="15px" height="15px" viewBox="0 0 15 15" version="1.1">
<g id="surface1">
<path style=" stroke:none;fill-rule:nonzero;fill:rgb(0%,0%,0%);fill-opacity:1;" d="M 4.6875 12.1875 L 10.3125 12.1875 L 10.3125 4.6875 L 4.6875 4.6875 Z M 3.28125 3.4375 L 3.28125 2.5 L 5.375 2.5 L 6 1.875 L 9 1.875 L 9.625 2.5 L 11.71875 2.5 L 11.71875 3.4375 Z M 4.6875 13.125 C 4.4375 13.125 4.21875 13.03125 4.03125 12.84375 C 3.84375 12.65625 3.75 12.4375 3.75 12.1875 L 3.75 3.75 L 11.25 3.75 L 11.25 12.1875 C 11.25 12.4375 11.15625 12.65625 10.96875 12.84375 C 10.78125 13.03125 10.5625 13.125 10.3125 13.125 Z M 4.6875 12.1875 L 10.3125 12.1875 Z M 4.6875 12.1875 "/>
</g>
</svg>
