<?xml version="1.0" encoding="UTF-8"?>
<svg xmlns="http://www.w3.org/2000/svg" xmlns:xlink="http://www.w3.org/1999/xlink" width="20px" height="20px" viewBox="0 0 20 20" version="1.1">
<g id="surface1">
<path style=" stroke:none;fill-rule:nonzero;fill:rgb(0%,0%,0%);fill-opacity:1;" d="M 10 16.667969 C 9.722656 16.667969 9.484375 16.570312 9.292969 16.375 C 9.097656 16.179688 9 15.945312 9 15.667969 C 9 15.390625 9.097656 15.152344 9.292969 14.957031 C 9.484375 14.765625 9.722656 14.667969 10 14.667969 C 10.277344 14.667969 10.515625 14.765625 10.707031 14.957031 C 10.902344 15.152344 11 15.390625 11 15.667969 C 11 15.945312 10.902344 16.179688 10.707031 16.375 C 10.515625 16.570312 10.277344 16.667969 10 16.667969 Z M 10 11 C 9.722656 11 9.484375 10.902344 9.292969 10.707031 C 9.097656 10.515625 9 10.277344 9 10 C 9 9.722656 9.097656 9.484375 9.292969 9.292969 C 9.484375 9.097656 9.722656 9 10 9 C 10.277344 9 10.515625 9.097656 10.707031 9.292969 C 10.902344 9.484375 11 9.722656 11 10 C 11 10.277344 10.902344 10.515625 10.707031 10.707031 C 10.515625 10.902344 10.277344 11 10 11 Z M 10 5.332031 C 9.722656 5.332031 9.484375 5.234375 9.292969 5.042969 C 9.097656 4.847656 9 4.609375 9 4.332031 C 9 4.054688 9.097656 3.820312 9.292969 3.625 C 9.484375 3.429688 9.722656 3.332031 10 3.332031 C 10.277344 3.332031 10.515625 3.429688 10.707031 3.625 C 10.902344 3.820312 11 4.054688 11 4.332031 C 11 4.609375 10.902344 4.847656 10.707031 5.042969 C 10.515625 5.234375 10.277344 5.332031 10 5.332031 Z M 10 5.332031 "/>
</g>
</svg>
