<?xml version="1.0" encoding="UTF-8"?>
<svg xmlns="http://www.w3.org/2000/svg" xmlns:xlink="http://www.w3.org/1999/xlink" width="20px" height="20px" viewBox="0 0 20 20" version="1.1">
<g id="surface1">
<path style=" stroke:none;fill-rule:nonzero;fill:rgb(0%,0%,0%);fill-opacity:1;" d="M 15.144531 18.332031 C 14.492188 18.332031 13.933594 18.101562 13.46875 17.636719 C 13.003906 17.171875 12.769531 16.609375 12.769531 15.957031 C 12.769531 15.859375 12.78125 15.746094 12.800781 15.613281 C 12.824219 15.484375 12.855469 15.359375 12.894531 15.25 L 6.582031 11.582031 C 6.375 11.820312 6.117188 12.011719 5.8125 12.15625 C 5.507812 12.300781 5.195312 12.375 4.875 12.375 C 4.222656 12.375 3.664062 12.140625 3.199219 11.675781 C 2.734375 11.210938 2.5 10.652344 2.5 10 C 2.5 9.332031 2.734375 8.769531 3.199219 8.3125 C 3.664062 7.855469 4.222656 7.625 4.875 7.625 C 5.195312 7.625 5.5 7.6875 5.792969 7.8125 C 6.082031 7.9375 6.347656 8.117188 6.582031 8.355469 L 12.894531 4.730469 C 12.855469 4.632812 12.824219 4.519531 12.800781 4.394531 C 12.78125 4.269531 12.769531 4.152344 12.769531 4.042969 C 12.769531 3.375 13.003906 2.8125 13.46875 2.355469 C 13.933594 1.894531 14.492188 1.667969 15.144531 1.667969 C 15.8125 1.667969 16.375 1.894531 16.832031 2.355469 C 17.292969 2.8125 17.519531 3.375 17.519531 4.042969 C 17.519531 4.695312 17.292969 5.253906 16.832031 5.71875 C 16.375 6.183594 15.8125 6.417969 15.144531 6.417969 C 14.828125 6.417969 14.515625 6.363281 14.21875 6.261719 C 13.921875 6.15625 13.667969 5.984375 13.457031 5.75 L 7.144531 9.25 C 7.171875 9.359375 7.199219 9.488281 7.21875 9.636719 C 7.238281 9.78125 7.25 9.902344 7.25 10 C 7.25 10.097656 7.238281 10.203125 7.21875 10.3125 C 7.199219 10.421875 7.171875 10.535156 7.144531 10.644531 L 13.457031 14.230469 C 13.667969 14.035156 13.910156 13.878906 14.1875 13.761719 C 14.464844 13.640625 14.785156 13.582031 15.144531 13.582031 C 15.8125 13.582031 16.375 13.8125 16.832031 14.269531 C 17.292969 14.730469 17.519531 15.292969 17.519531 15.957031 C 17.519531 16.609375 17.292969 17.171875 16.832031 17.636719 C 16.375 18.101562 15.8125 18.332031 15.144531 18.332031 Z M 15.144531 5.167969 C 15.464844 5.167969 15.734375 5.058594 15.949219 4.84375 C 16.164062 4.628906 16.269531 4.359375 16.269531 4.042969 C 16.269531 3.722656 16.164062 3.453125 15.949219 3.238281 C 15.734375 3.023438 15.464844 2.917969 15.144531 2.917969 C 14.828125 2.917969 14.558594 3.023438 14.34375 3.238281 C 14.128906 3.453125 14.019531 3.722656 14.019531 4.042969 C 14.019531 4.359375 14.128906 4.628906 14.34375 4.84375 C 14.558594 5.058594 14.828125 5.167969 15.144531 5.167969 Z M 4.875 11.125 C 5.195312 11.125 5.460938 11.015625 5.675781 10.800781 C 5.890625 10.585938 6 10.320312 6 10 C 6 9.679688 5.890625 9.414062 5.675781 9.199219 C 5.460938 8.984375 5.195312 8.875 4.875 8.875 C 4.554688 8.875 4.289062 8.984375 4.074219 9.199219 C 3.859375 9.414062 3.75 9.679688 3.75 10 C 3.75 10.320312 3.859375 10.585938 4.074219 10.800781 C 4.289062 11.015625 4.554688 11.125 4.875 11.125 Z M 15.144531 17.082031 C 15.464844 17.082031 15.734375 16.976562 15.949219 16.761719 C 16.164062 16.546875 16.269531 16.277344 16.269531 15.957031 C 16.269531 15.640625 16.164062 15.371094 15.949219 15.15625 C 15.734375 14.941406 15.464844 14.832031 15.144531 14.832031 C 14.828125 14.832031 14.558594 14.941406 14.34375 15.15625 C 14.128906 15.371094 14.019531 15.640625 14.019531 15.957031 C 14.019531 16.277344 14.128906 16.546875 14.34375 16.761719 C 14.558594 16.976562 14.828125 17.082031 15.144531 17.082031 Z M 15.144531 4.042969 Z M 4.875 10 Z M 15.144531 15.957031 Z M 15.144531 15.957031 "/>
</g>
</svg>
