<?xml version="1.0" encoding="UTF-8"?>
<svg xmlns="http://www.w3.org/2000/svg" xmlns:xlink="http://www.w3.org/1999/xlink" width="13px" height="13px" viewBox="0 0 13 13" version="1.1">
<g id="surface1">
<path style=" stroke:none;fill-rule:nonzero;fill:rgb(0%,0%,0%);fill-opacity:1;" d="M 4.0625 10.5625 L 8.9375 10.5625 L 8.9375 4.0625 L 4.0625 4.0625 Z M 2.84375 2.980469 L 2.84375 2.167969 L 4.660156 2.167969 L 5.199219 1.625 L 7.800781 1.625 L 8.339844 2.167969 L 10.15625 2.167969 L 10.15625 2.980469 Z M 4.0625 11.375 C 3.847656 11.375 3.65625 11.292969 3.492188 11.132812 C 3.332031 10.96875 3.25 10.777344 3.25 10.5625 L 3.25 3.25 L 9.75 3.25 L 9.75 10.5625 C 9.75 10.777344 9.667969 10.96875 9.507812 11.132812 C 9.34375 11.292969 9.152344 11.375 8.9375 11.375 Z M 4.0625 10.5625 L 8.9375 10.5625 Z M 4.0625 10.5625 "/>
</g>
</svg>
