<?xml version="1.0" encoding="UTF-8"?>
<svg xmlns="http://www.w3.org/2000/svg" xmlns:xlink="http://www.w3.org/1999/xlink" width="20px" height="20px" viewBox="0 0 20 20" version="1.1">
<g id="surface1">
<path style=" stroke:none;fill-rule:nonzero;fill:rgb(0%,0%,0%);fill-opacity:1;" d="M 3.75 18.332031 C 3.417969 18.332031 3.125 18.207031 2.875 17.957031 C 2.625 17.707031 2.5 17.417969 2.5 17.082031 L 2.5 4.167969 C 2.5 3.832031 2.625 3.542969 2.875 3.292969 C 3.125 3.042969 3.417969 2.917969 3.75 2.917969 L 5.105469 2.917969 L 5.105469 1.667969 L 6.457031 1.667969 L 6.457031 2.917969 L 13.542969 2.917969 L 13.542969 1.667969 L 14.894531 1.667969 L 14.894531 2.917969 L 16.25 2.917969 C 16.582031 2.917969 16.875 3.042969 17.125 3.292969 C 17.375 3.542969 17.5 3.832031 17.5 4.167969 L 17.5 17.082031 C 17.5 17.417969 17.375 17.707031 17.125 17.957031 C 16.875 18.207031 16.582031 18.332031 16.25 18.332031 Z M 3.75 17.082031 L 16.25 17.082031 L 16.25 8.125 L 3.75 8.125 Z M 3.75 6.875 L 16.25 6.875 L 16.25 4.167969 L 3.75 4.167969 Z M 3.75 6.875 L 3.75 4.167969 Z M 3.75 6.875 "/>
</g>
</svg>
