<?xml version="1.0" encoding="UTF-8"?>
<svg xmlns="http://www.w3.org/2000/svg" xmlns:xlink="http://www.w3.org/1999/xlink" width="20px" height="20px" viewBox="0 0 20 20" version="1.1">
<g id="surface1">
<path style=" stroke:none;fill-rule:nonzero;fill:rgb(0%,0%,0%);fill-opacity:1;" d="M 1.667969 16.667969 L 1.667969 14.707031 C 1.667969 14.234375 1.785156 13.800781 2.019531 13.40625 C 2.257812 13.011719 2.609375 12.707031 3.082031 12.5 C 4.082031 12.054688 5 11.734375 5.832031 11.542969 C 6.667969 11.347656 7.5 11.25 8.332031 11.25 C 8.734375 11.25 9.164062 11.273438 9.613281 11.324219 C 10.066406 11.371094 10.527344 11.457031 11 11.582031 L 9.980469 12.605469 C 9.703125 12.578125 9.425781 12.550781 9.15625 12.53125 C 8.886719 12.511719 8.609375 12.5 8.332031 12.5 C 7.527344 12.5 6.796875 12.574219 6.136719 12.71875 C 5.476562 12.863281 4.625 13.167969 3.582031 13.625 C 3.347656 13.734375 3.175781 13.894531 3.074219 14.105469 C 2.96875 14.3125 2.917969 14.515625 2.917969 14.707031 L 2.917969 15.417969 L 9.5625 15.417969 L 10.8125 16.667969 Z M 13.019531 17 L 10.082031 14.0625 L 10.957031 13.1875 L 13.019531 15.25 L 17.457031 10.8125 L 18.332031 11.6875 Z M 8.332031 9.957031 C 7.417969 9.957031 6.667969 9.667969 6.082031 9.082031 C 5.5 8.5 5.207031 7.75 5.207031 6.832031 C 5.207031 5.917969 5.5 5.167969 6.082031 4.582031 C 6.667969 4 7.417969 3.707031 8.332031 3.707031 C 9.25 3.707031 10 4 10.582031 4.582031 C 11.167969 5.167969 11.457031 5.917969 11.457031 6.832031 C 11.457031 7.75 11.167969 8.5 10.582031 9.082031 C 10 9.667969 9.25 9.957031 8.332031 9.957031 Z M 9.5625 15.417969 Z M 8.332031 8.707031 C 8.875 8.707031 9.324219 8.53125 9.675781 8.175781 C 10.03125 7.824219 10.207031 7.375 10.207031 6.832031 C 10.207031 6.292969 10.03125 5.84375 9.675781 5.488281 C 9.324219 5.136719 8.875 4.957031 8.332031 4.957031 C 7.792969 4.957031 7.34375 5.136719 6.988281 5.488281 C 6.636719 5.84375 6.457031 6.292969 6.457031 6.832031 C 6.457031 7.375 6.636719 7.824219 6.988281 8.175781 C 7.34375 8.53125 7.792969 8.707031 8.332031 8.707031 Z M 8.332031 6.832031 Z M 8.332031 6.832031 "/>
</g>
</svg>
